# xmcd CD database file generated by Grip 2.92
# 
# Track frame offsets:
#       150
#       12975
#       27872
#       51770
#       69413
#       87542
#       100345
#       115562
#       136016
#       157546
#       174715
# 
# Disc length: 2571 seconds
# 
# Revision: 3
# Processed by: cddbd v1.4b41PL1 Copyright (c) Steve Scherf et al.
# Submitted via: Grip 2.92
# 
DISCID=7e0a090b
DTITLE=Sinister Dexter - Demo2000
DYEAR=1900
DGENRE=
TTITLE0=Chasing the Clouds Away
TTITLE1=Ding Dong Daddy
TTITLE2=What is Hip?
TTITLE3=One-Eyed Jack
TTITLE4=Knock Yourself Out
TTITLE5=Pride and Joy
TTITLE6=Little Red Riding Hood
TTITLE7=Sinister Dexter
TTITLE8=Superstition
TTITLE9=Swim On Over
TTITLE10=Two Before Nine
EXTD=
EXTT0=
EXTT1=
EXTT2=
EXTT3=
EXTT4=
EXTT5=
EXTT6=
EXTT7=
EXTT8=
EXTT9=
EXTT10=
PLAYORDER=
